<mxfile host="Electron" modified="2024-06-24T06:26:30.193Z" agent="Mozilla/5.0 (Windows NT 10.0; Win64; x64) AppleWebKit/537.36 (KHTML, like Gecko) draw.io/24.6.1 Chrome/124.0.6367.207 Electron/30.0.6 Safari/537.36" etag="2P-EkcF9Ly78skGw8LJO" version="24.6.1" type="device">
  <diagram id="kgpKYQtTHZ0yAKxKKP6v" name="Page-1">
    <mxGraphModel dx="1674" dy="957" grid="1" gridSize="10" guides="1" tooltips="1" connect="1" arrows="1" fold="1" page="1" pageScale="1" pageWidth="850" pageHeight="1100" math="0" shadow="0">
      <root>
        <mxCell id="0" />
        <mxCell id="1" parent="0" />
        <mxCell id="3nuBFxr9cyL0pnOWT2aG-1" value="Appsoft - Exams (Kolpi) Functional Flow" style="shape=table;childLayout=tableLayout;startSize=40;collapsible=0;recursiveResize=0;expand=0;fillColor=none;fontStyle=1" parent="1" vertex="1">
          <mxGeometry x="40" y="40" width="1660" height="1190" as="geometry" />
        </mxCell>
        <mxCell id="3nuBFxr9cyL0pnOWT2aG-3" value="Creator" style="shape=tableRow;horizontal=0;swimlaneHead=0;swimlaneBody=0;top=0;left=0;bottom=0;right=0;fillColor=none;points=[[0,0.5],[1,0.5]];portConstraint=eastwest;startSize=40;collapsible=0;recursiveResize=0;expand=0;fontStyle=1;" parent="3nuBFxr9cyL0pnOWT2aG-1" vertex="1">
          <mxGeometry y="40" width="1660" height="460" as="geometry" />
        </mxCell>
        <mxCell id="3nuBFxr9cyL0pnOWT2aG-4" value="Question Bank" style="swimlane;swimlaneHead=0;swimlaneBody=0;connectable=0;fillColor=none;startSize=40;collapsible=0;recursiveResize=0;expand=0;fontStyle=1;" parent="3nuBFxr9cyL0pnOWT2aG-3" vertex="1">
          <mxGeometry x="40" width="390" height="460" as="geometry">
            <mxRectangle width="390" height="460" as="alternateBounds" />
          </mxGeometry>
        </mxCell>
        <mxCell id="F5dP5_MxQEhV5lxmtGqp-54" style="edgeStyle=orthogonalEdgeStyle;rounded=0;orthogonalLoop=1;jettySize=auto;html=1;exitX=0.5;exitY=1;exitDx=0;exitDy=0;entryX=0;entryY=0.5;entryDx=0;entryDy=0;" edge="1" parent="3nuBFxr9cyL0pnOWT2aG-4" source="3nuBFxr9cyL0pnOWT2aG-7" target="F5dP5_MxQEhV5lxmtGqp-44">
          <mxGeometry relative="1" as="geometry" />
        </mxCell>
        <mxCell id="F5dP5_MxQEhV5lxmtGqp-55" style="edgeStyle=orthogonalEdgeStyle;rounded=0;orthogonalLoop=1;jettySize=auto;html=1;exitX=0.5;exitY=1;exitDx=0;exitDy=0;entryX=0;entryY=0.5;entryDx=0;entryDy=0;" edge="1" parent="3nuBFxr9cyL0pnOWT2aG-4" source="3nuBFxr9cyL0pnOWT2aG-7" target="F5dP5_MxQEhV5lxmtGqp-43">
          <mxGeometry relative="1" as="geometry" />
        </mxCell>
        <mxCell id="F5dP5_MxQEhV5lxmtGqp-58" style="edgeStyle=orthogonalEdgeStyle;rounded=0;orthogonalLoop=1;jettySize=auto;html=1;exitX=0.25;exitY=1;exitDx=0;exitDy=0;entryX=0.5;entryY=0;entryDx=0;entryDy=0;" edge="1" parent="3nuBFxr9cyL0pnOWT2aG-4" source="3nuBFxr9cyL0pnOWT2aG-7" target="F5dP5_MxQEhV5lxmtGqp-51">
          <mxGeometry relative="1" as="geometry" />
        </mxCell>
        <mxCell id="3nuBFxr9cyL0pnOWT2aG-7" value="Add Questions - N" style="rounded=0;whiteSpace=wrap;html=1;" parent="3nuBFxr9cyL0pnOWT2aG-4" vertex="1">
          <mxGeometry x="31" y="114" width="320" height="30" as="geometry" />
        </mxCell>
        <mxCell id="F5dP5_MxQEhV5lxmtGqp-41" value="Manage tag categories" style="rounded=0;whiteSpace=wrap;html=1;" vertex="1" parent="3nuBFxr9cyL0pnOWT2aG-4">
          <mxGeometry x="31" y="60" width="180" height="30" as="geometry" />
        </mxCell>
        <mxCell id="F5dP5_MxQEhV5lxmtGqp-43" value="Question Body" style="rounded=0;whiteSpace=wrap;html=1;" vertex="1" parent="3nuBFxr9cyL0pnOWT2aG-4">
          <mxGeometry x="231" y="180" width="118" height="30" as="geometry" />
        </mxCell>
        <mxCell id="F5dP5_MxQEhV5lxmtGqp-44" value="Tagging" style="rounded=0;whiteSpace=wrap;html=1;" vertex="1" parent="3nuBFxr9cyL0pnOWT2aG-4">
          <mxGeometry x="231" y="236" width="118" height="30" as="geometry" />
        </mxCell>
        <mxCell id="F5dP5_MxQEhV5lxmtGqp-109" style="edgeStyle=orthogonalEdgeStyle;rounded=0;orthogonalLoop=1;jettySize=auto;html=1;exitX=1;exitY=0.5;exitDx=0;exitDy=0;entryX=0;entryY=0.5;entryDx=0;entryDy=0;" edge="1" parent="3nuBFxr9cyL0pnOWT2aG-4" source="F5dP5_MxQEhV5lxmtGqp-50" target="F5dP5_MxQEhV5lxmtGqp-108">
          <mxGeometry relative="1" as="geometry" />
        </mxCell>
        <mxCell id="F5dP5_MxQEhV5lxmtGqp-50" value="Answer Options - N" style="rounded=0;whiteSpace=wrap;html=1;" vertex="1" parent="3nuBFxr9cyL0pnOWT2aG-4">
          <mxGeometry x="31" y="290" width="119" height="30" as="geometry" />
        </mxCell>
        <mxCell id="F5dP5_MxQEhV5lxmtGqp-77" style="edgeStyle=orthogonalEdgeStyle;rounded=0;orthogonalLoop=1;jettySize=auto;html=1;exitX=0.5;exitY=1;exitDx=0;exitDy=0;entryX=0.25;entryY=0;entryDx=0;entryDy=0;" edge="1" parent="3nuBFxr9cyL0pnOWT2aG-4" source="F5dP5_MxQEhV5lxmtGqp-51" target="F5dP5_MxQEhV5lxmtGqp-50">
          <mxGeometry relative="1" as="geometry" />
        </mxCell>
        <mxCell id="F5dP5_MxQEhV5lxmtGqp-51" value="Objective?" style="rhombus;whiteSpace=wrap;html=1;" vertex="1" parent="3nuBFxr9cyL0pnOWT2aG-4">
          <mxGeometry x="71" y="182" width="80" height="70" as="geometry" />
        </mxCell>
        <mxCell id="F5dP5_MxQEhV5lxmtGqp-80" style="edgeStyle=orthogonalEdgeStyle;rounded=0;orthogonalLoop=1;jettySize=auto;html=1;entryX=0.5;entryY=0;entryDx=0;entryDy=0;exitX=0.25;exitY=1;exitDx=0;exitDy=0;" edge="1" parent="3nuBFxr9cyL0pnOWT2aG-4" source="F5dP5_MxQEhV5lxmtGqp-73" target="F5dP5_MxQEhV5lxmtGqp-79">
          <mxGeometry relative="1" as="geometry" />
        </mxCell>
        <mxCell id="F5dP5_MxQEhV5lxmtGqp-73" value="Save Questions - N" style="rounded=0;whiteSpace=wrap;html=1;" vertex="1" parent="3nuBFxr9cyL0pnOWT2aG-4">
          <mxGeometry x="31" y="340" width="320" height="30" as="geometry" />
        </mxCell>
        <mxCell id="F5dP5_MxQEhV5lxmtGqp-76" value="Manage tags" style="rounded=0;whiteSpace=wrap;html=1;" vertex="1" parent="3nuBFxr9cyL0pnOWT2aG-4">
          <mxGeometry x="221" y="60" width="130" height="30" as="geometry" />
        </mxCell>
        <mxCell id="F5dP5_MxQEhV5lxmtGqp-78" value="Audits&lt;div&gt;Created date, by etc.&lt;/div&gt;" style="rounded=0;whiteSpace=wrap;html=1;" vertex="1" parent="3nuBFxr9cyL0pnOWT2aG-4">
          <mxGeometry x="231" y="400" width="118" height="40" as="geometry" />
        </mxCell>
        <mxCell id="F5dP5_MxQEhV5lxmtGqp-79" value="Store&lt;div&gt;&lt;span style=&quot;background-color: initial;&quot;&gt;Tables, Cloud storage etc.&lt;/span&gt;&lt;/div&gt;" style="rounded=0;whiteSpace=wrap;html=1;" vertex="1" parent="3nuBFxr9cyL0pnOWT2aG-4">
          <mxGeometry x="31" y="400" width="160" height="40" as="geometry" />
        </mxCell>
        <mxCell id="F5dP5_MxQEhV5lxmtGqp-90" style="edgeStyle=orthogonalEdgeStyle;rounded=0;orthogonalLoop=1;jettySize=auto;html=1;entryX=0.5;entryY=0;entryDx=0;entryDy=0;" edge="1" parent="3nuBFxr9cyL0pnOWT2aG-4" target="F5dP5_MxQEhV5lxmtGqp-78">
          <mxGeometry relative="1" as="geometry">
            <mxPoint x="291" y="370" as="sourcePoint" />
          </mxGeometry>
        </mxCell>
        <mxCell id="F5dP5_MxQEhV5lxmtGqp-108" value="Text, Image, Audio, Video," style="rounded=0;whiteSpace=wrap;html=1;" vertex="1" parent="3nuBFxr9cyL0pnOWT2aG-4">
          <mxGeometry x="199" y="290" width="150" height="30" as="geometry" />
        </mxCell>
        <mxCell id="3nuBFxr9cyL0pnOWT2aG-8" value="Review" style="swimlane;swimlaneHead=0;swimlaneBody=0;connectable=0;fillColor=none;startSize=40;collapsible=0;recursiveResize=0;expand=0;fontStyle=1;" parent="3nuBFxr9cyL0pnOWT2aG-3" vertex="1">
          <mxGeometry x="430" width="310" height="460" as="geometry">
            <mxRectangle width="310" height="460" as="alternateBounds" />
          </mxGeometry>
        </mxCell>
        <mxCell id="F5dP5_MxQEhV5lxmtGqp-111" value="Feedbacks, quality scores etc." style="rounded=0;whiteSpace=wrap;html=1;" vertex="1" parent="3nuBFxr9cyL0pnOWT2aG-8">
          <mxGeometry x="60" y="215" width="180" height="30" as="geometry" />
        </mxCell>
        <mxCell id="3nuBFxr9cyL0pnOWT2aG-11" value="Question Sets" style="swimlane;swimlaneHead=0;swimlaneBody=0;connectable=0;fillColor=none;startSize=40;collapsible=0;recursiveResize=0;expand=0;fontStyle=1;" parent="3nuBFxr9cyL0pnOWT2aG-3" vertex="1">
          <mxGeometry x="740" width="320" height="460" as="geometry">
            <mxRectangle width="320" height="460" as="alternateBounds" />
          </mxGeometry>
        </mxCell>
        <mxCell id="F5dP5_MxQEhV5lxmtGqp-91" value="Schedules" style="swimlane;swimlaneHead=0;swimlaneBody=0;connectable=0;fillColor=none;startSize=40;collapsible=0;recursiveResize=0;expand=0;fontStyle=1;" vertex="1" parent="3nuBFxr9cyL0pnOWT2aG-3">
          <mxGeometry x="1060" width="320" height="460" as="geometry">
            <mxRectangle width="320" height="460" as="alternateBounds" />
          </mxGeometry>
        </mxCell>
        <mxCell id="F5dP5_MxQEhV5lxmtGqp-103" value="Analytics" style="swimlane;swimlaneHead=0;swimlaneBody=0;connectable=0;fillColor=none;startSize=40;collapsible=0;recursiveResize=0;expand=0;fontStyle=1;" vertex="1" parent="3nuBFxr9cyL0pnOWT2aG-3">
          <mxGeometry x="1380" width="280" height="460" as="geometry">
            <mxRectangle width="280" height="460" as="alternateBounds" />
          </mxGeometry>
        </mxCell>
        <mxCell id="F5dP5_MxQEhV5lxmtGqp-128" value="Total questions added: by types, by subject areas etc." style="rounded=0;whiteSpace=wrap;html=1;" vertex="1" parent="F5dP5_MxQEhV5lxmtGqp-103">
          <mxGeometry x="50" y="310" width="200" height="30" as="geometry" />
        </mxCell>
        <mxCell id="3nuBFxr9cyL0pnOWT2aG-15" value="Auditor" style="shape=tableRow;horizontal=0;swimlaneHead=0;swimlaneBody=0;top=0;left=0;bottom=0;right=0;fillColor=none;points=[[0,0.5],[1,0.5]];portConstraint=eastwest;startSize=40;collapsible=0;recursiveResize=0;expand=0;fontStyle=1;" parent="3nuBFxr9cyL0pnOWT2aG-1" vertex="1">
          <mxGeometry y="500" width="1660" height="230" as="geometry" />
        </mxCell>
        <mxCell id="3nuBFxr9cyL0pnOWT2aG-16" value="" style="swimlane;swimlaneHead=0;swimlaneBody=0;connectable=0;fillColor=none;startSize=0;collapsible=0;recursiveResize=0;expand=0;fontStyle=1;" parent="3nuBFxr9cyL0pnOWT2aG-15" vertex="1">
          <mxGeometry x="40" width="390" height="230" as="geometry">
            <mxRectangle width="390" height="230" as="alternateBounds" />
          </mxGeometry>
        </mxCell>
        <mxCell id="F5dP5_MxQEhV5lxmtGqp-113" value="Review new questions" style="rounded=0;whiteSpace=wrap;html=1;" vertex="1" parent="3nuBFxr9cyL0pnOWT2aG-16">
          <mxGeometry x="105" y="90" width="180" height="30" as="geometry" />
        </mxCell>
        <mxCell id="3nuBFxr9cyL0pnOWT2aG-18" value="" style="swimlane;swimlaneHead=0;swimlaneBody=0;connectable=0;fillColor=none;startSize=0;collapsible=0;recursiveResize=0;expand=0;fontStyle=1;" parent="3nuBFxr9cyL0pnOWT2aG-15" vertex="1">
          <mxGeometry x="430" width="310" height="230" as="geometry">
            <mxRectangle width="310" height="230" as="alternateBounds" />
          </mxGeometry>
        </mxCell>
        <mxCell id="F5dP5_MxQEhV5lxmtGqp-112" value="Dedicated UI" style="rounded=0;whiteSpace=wrap;html=1;" vertex="1" parent="3nuBFxr9cyL0pnOWT2aG-18">
          <mxGeometry x="65" y="20" width="180" height="30" as="geometry" />
        </mxCell>
        <mxCell id="F5dP5_MxQEhV5lxmtGqp-114" value="Question body" style="rounded=0;whiteSpace=wrap;html=1;" vertex="1" parent="3nuBFxr9cyL0pnOWT2aG-18">
          <mxGeometry x="65" y="110" width="180" height="30" as="geometry" />
        </mxCell>
        <mxCell id="F5dP5_MxQEhV5lxmtGqp-115" value="Correctness on answer Options" style="rounded=0;whiteSpace=wrap;html=1;" vertex="1" parent="3nuBFxr9cyL0pnOWT2aG-18">
          <mxGeometry x="65" y="150" width="180" height="30" as="geometry" />
        </mxCell>
        <mxCell id="F5dP5_MxQEhV5lxmtGqp-116" value="Appropriate tagging" style="rounded=0;whiteSpace=wrap;html=1;" vertex="1" parent="3nuBFxr9cyL0pnOWT2aG-18">
          <mxGeometry x="65" y="190" width="180" height="30" as="geometry" />
        </mxCell>
        <mxCell id="F5dP5_MxQEhV5lxmtGqp-117" value="A question at a time" style="rounded=0;whiteSpace=wrap;html=1;" vertex="1" parent="3nuBFxr9cyL0pnOWT2aG-18">
          <mxGeometry x="65" y="70" width="180" height="30" as="geometry" />
        </mxCell>
        <mxCell id="3nuBFxr9cyL0pnOWT2aG-23" value="" style="swimlane;swimlaneHead=0;swimlaneBody=0;connectable=0;fillColor=none;startSize=0;collapsible=0;recursiveResize=0;expand=0;fontStyle=1;" parent="3nuBFxr9cyL0pnOWT2aG-15" vertex="1">
          <mxGeometry x="740" width="320" height="230" as="geometry">
            <mxRectangle width="320" height="230" as="alternateBounds" />
          </mxGeometry>
        </mxCell>
        <mxCell id="F5dP5_MxQEhV5lxmtGqp-92" style="swimlane;swimlaneHead=0;swimlaneBody=0;connectable=0;fillColor=none;startSize=0;collapsible=0;recursiveResize=0;expand=0;fontStyle=1;" vertex="1" parent="3nuBFxr9cyL0pnOWT2aG-15">
          <mxGeometry x="1060" width="320" height="230" as="geometry">
            <mxRectangle width="320" height="230" as="alternateBounds" />
          </mxGeometry>
        </mxCell>
        <mxCell id="F5dP5_MxQEhV5lxmtGqp-104" style="swimlane;swimlaneHead=0;swimlaneBody=0;connectable=0;fillColor=none;startSize=0;collapsible=0;recursiveResize=0;expand=0;fontStyle=1;" vertex="1" parent="3nuBFxr9cyL0pnOWT2aG-15">
          <mxGeometry x="1380" width="280" height="230" as="geometry">
            <mxRectangle width="280" height="230" as="alternateBounds" />
          </mxGeometry>
        </mxCell>
        <mxCell id="F5dP5_MxQEhV5lxmtGqp-126" value="Total reviews done" style="rounded=0;whiteSpace=wrap;html=1;" vertex="1" parent="F5dP5_MxQEhV5lxmtGqp-104">
          <mxGeometry x="30" y="80" width="200" height="30" as="geometry" />
        </mxCell>
        <mxCell id="F5dP5_MxQEhV5lxmtGqp-127" value="Accuracy scores" style="rounded=0;whiteSpace=wrap;html=1;" vertex="1" parent="F5dP5_MxQEhV5lxmtGqp-104">
          <mxGeometry x="30" y="130" width="200" height="30" as="geometry" />
        </mxCell>
        <mxCell id="F5dP5_MxQEhV5lxmtGqp-93" value="Examiner" style="shape=tableRow;horizontal=0;swimlaneHead=0;swimlaneBody=0;top=0;left=0;bottom=0;right=0;fillColor=none;points=[[0,0.5],[1,0.5]];portConstraint=eastwest;startSize=40;collapsible=0;recursiveResize=0;expand=0;fontStyle=1;" vertex="1" parent="3nuBFxr9cyL0pnOWT2aG-1">
          <mxGeometry y="730" width="1660" height="230" as="geometry" />
        </mxCell>
        <mxCell id="F5dP5_MxQEhV5lxmtGqp-94" style="swimlane;swimlaneHead=0;swimlaneBody=0;connectable=0;fillColor=none;startSize=0;collapsible=0;recursiveResize=0;expand=0;fontStyle=1;" vertex="1" parent="F5dP5_MxQEhV5lxmtGqp-93">
          <mxGeometry x="40" width="390" height="230" as="geometry">
            <mxRectangle width="390" height="230" as="alternateBounds" />
          </mxGeometry>
        </mxCell>
        <mxCell id="F5dP5_MxQEhV5lxmtGqp-95" style="swimlane;swimlaneHead=0;swimlaneBody=0;connectable=0;fillColor=none;startSize=0;collapsible=0;recursiveResize=0;expand=0;fontStyle=1;" vertex="1" parent="F5dP5_MxQEhV5lxmtGqp-93">
          <mxGeometry x="430" width="310" height="230" as="geometry">
            <mxRectangle width="310" height="230" as="alternateBounds" />
          </mxGeometry>
        </mxCell>
        <mxCell id="F5dP5_MxQEhV5lxmtGqp-96" style="swimlane;swimlaneHead=0;swimlaneBody=0;connectable=0;fillColor=none;startSize=0;collapsible=0;recursiveResize=0;expand=0;fontStyle=1;" vertex="1" parent="F5dP5_MxQEhV5lxmtGqp-93">
          <mxGeometry x="740" width="320" height="230" as="geometry">
            <mxRectangle width="320" height="230" as="alternateBounds" />
          </mxGeometry>
        </mxCell>
        <mxCell id="F5dP5_MxQEhV5lxmtGqp-118" value="Create question paper" style="rounded=0;whiteSpace=wrap;html=1;" vertex="1" parent="F5dP5_MxQEhV5lxmtGqp-96">
          <mxGeometry x="50" y="80" width="200" height="30" as="geometry" />
        </mxCell>
        <mxCell id="F5dP5_MxQEhV5lxmtGqp-97" style="swimlane;swimlaneHead=0;swimlaneBody=0;connectable=0;fillColor=none;startSize=0;collapsible=0;recursiveResize=0;expand=0;fontStyle=1;" vertex="1" parent="F5dP5_MxQEhV5lxmtGqp-93">
          <mxGeometry x="1060" width="320" height="230" as="geometry">
            <mxRectangle width="320" height="230" as="alternateBounds" />
          </mxGeometry>
        </mxCell>
        <mxCell id="F5dP5_MxQEhV5lxmtGqp-120" value="Exam schedules" style="rounded=0;whiteSpace=wrap;html=1;" vertex="1" parent="F5dP5_MxQEhV5lxmtGqp-97">
          <mxGeometry x="50" y="90" width="200" height="30" as="geometry" />
        </mxCell>
        <mxCell id="F5dP5_MxQEhV5lxmtGqp-105" style="swimlane;swimlaneHead=0;swimlaneBody=0;connectable=0;fillColor=none;startSize=0;collapsible=0;recursiveResize=0;expand=0;fontStyle=1;" vertex="1" parent="F5dP5_MxQEhV5lxmtGqp-93">
          <mxGeometry x="1380" width="280" height="230" as="geometry">
            <mxRectangle width="280" height="230" as="alternateBounds" />
          </mxGeometry>
        </mxCell>
        <mxCell id="F5dP5_MxQEhV5lxmtGqp-125" value="Question papers - By subjects, by user, by dates etc." style="rounded=0;whiteSpace=wrap;html=1;" vertex="1" parent="F5dP5_MxQEhV5lxmtGqp-105">
          <mxGeometry x="40" y="30" width="200" height="30" as="geometry" />
        </mxCell>
        <mxCell id="F5dP5_MxQEhV5lxmtGqp-98" value="Examnee" style="shape=tableRow;horizontal=0;swimlaneHead=0;swimlaneBody=0;top=0;left=0;bottom=0;right=0;fillColor=none;points=[[0,0.5],[1,0.5]];portConstraint=eastwest;startSize=40;collapsible=0;recursiveResize=0;expand=0;fontStyle=1;" vertex="1" parent="3nuBFxr9cyL0pnOWT2aG-1">
          <mxGeometry y="960" width="1660" height="230" as="geometry" />
        </mxCell>
        <mxCell id="F5dP5_MxQEhV5lxmtGqp-99" style="swimlane;swimlaneHead=0;swimlaneBody=0;connectable=0;fillColor=none;startSize=0;collapsible=0;recursiveResize=0;expand=0;fontStyle=1;" vertex="1" parent="F5dP5_MxQEhV5lxmtGqp-98">
          <mxGeometry x="40" width="390" height="230" as="geometry">
            <mxRectangle width="390" height="230" as="alternateBounds" />
          </mxGeometry>
        </mxCell>
        <mxCell id="F5dP5_MxQEhV5lxmtGqp-100" style="swimlane;swimlaneHead=0;swimlaneBody=0;connectable=0;fillColor=none;startSize=0;collapsible=0;recursiveResize=0;expand=0;fontStyle=1;" vertex="1" parent="F5dP5_MxQEhV5lxmtGqp-98">
          <mxGeometry x="430" width="310" height="230" as="geometry">
            <mxRectangle width="310" height="230" as="alternateBounds" />
          </mxGeometry>
        </mxCell>
        <mxCell id="F5dP5_MxQEhV5lxmtGqp-101" style="swimlane;swimlaneHead=0;swimlaneBody=0;connectable=0;fillColor=none;startSize=0;collapsible=0;recursiveResize=0;expand=0;fontStyle=1;" vertex="1" parent="F5dP5_MxQEhV5lxmtGqp-98">
          <mxGeometry x="740" width="320" height="230" as="geometry">
            <mxRectangle width="320" height="230" as="alternateBounds" />
          </mxGeometry>
        </mxCell>
        <mxCell id="F5dP5_MxQEhV5lxmtGqp-102" style="swimlane;swimlaneHead=0;swimlaneBody=0;connectable=0;fillColor=none;startSize=0;collapsible=0;recursiveResize=0;expand=0;fontStyle=1;" vertex="1" parent="F5dP5_MxQEhV5lxmtGqp-98">
          <mxGeometry x="1060" width="320" height="230" as="geometry">
            <mxRectangle width="320" height="230" as="alternateBounds" />
          </mxGeometry>
        </mxCell>
        <mxCell id="F5dP5_MxQEhV5lxmtGqp-121" value="Take exams and tests" style="rounded=0;whiteSpace=wrap;html=1;" vertex="1" parent="F5dP5_MxQEhV5lxmtGqp-102">
          <mxGeometry x="50" y="110" width="200" height="30" as="geometry" />
        </mxCell>
        <mxCell id="F5dP5_MxQEhV5lxmtGqp-122" value="Test screen" style="rounded=0;whiteSpace=wrap;html=1;" vertex="1" parent="F5dP5_MxQEhV5lxmtGqp-102">
          <mxGeometry x="50" y="20" width="200" height="30" as="geometry" />
        </mxCell>
        <mxCell id="F5dP5_MxQEhV5lxmtGqp-123" value="Timebound" style="rounded=0;whiteSpace=wrap;html=1;" vertex="1" parent="F5dP5_MxQEhV5lxmtGqp-102">
          <mxGeometry x="50" y="60" width="200" height="30" as="geometry" />
        </mxCell>
        <mxCell id="F5dP5_MxQEhV5lxmtGqp-106" style="swimlane;swimlaneHead=0;swimlaneBody=0;connectable=0;fillColor=none;startSize=0;collapsible=0;recursiveResize=0;expand=0;fontStyle=1;" vertex="1" parent="F5dP5_MxQEhV5lxmtGqp-98">
          <mxGeometry x="1380" width="280" height="230" as="geometry">
            <mxRectangle width="280" height="230" as="alternateBounds" />
          </mxGeometry>
        </mxCell>
        <mxCell id="F5dP5_MxQEhV5lxmtGqp-124" value="Score, grades obtained" style="rounded=0;whiteSpace=wrap;html=1;" vertex="1" parent="F5dP5_MxQEhV5lxmtGqp-106">
          <mxGeometry x="40" y="80" width="200" height="30" as="geometry" />
        </mxCell>
      </root>
    </mxGraphModel>
  </diagram>
</mxfile>
